<svg xmlns="http://www.w3.org/2000/svg" width="800" height="600" viewBox="0 0 800 600" role="img" aria-labelledby="title desc">
  <title id="title">أسماء الإشارة</title>
  <desc id="desc">رسم تعليمي مبسط يوضح استخدام أسماء الإشارة هذا وهذه وهؤلاء وهاتان.</desc>
  <rect width="800" height="600" rx="36" fill="#F8F6F1"/>
  <circle cx="86" cy="82" r="54" fill="#F58220" opacity="0.12"/>
  <circle cx="724" cy="514" r="78" fill="#3F7F2A" opacity="0.10"/>
  <text x="400" y="82" text-anchor="middle" direction="rtl" unicode-bidi="plaintext" font-family="Arial, Tahoma, sans-serif" font-size="44" font-weight="700" fill="#0B2D5C">أسماء الإشارة</text>
  <text x="400" y="120" text-anchor="middle" direction="rtl" unicode-bidi="plaintext" font-family="Arial, Tahoma, sans-serif" font-size="22" fill="#5F625E">اختر الاسم المناسب للصورة أو الكلمة</text>

  <g transform="translate(72 165)">
    <rect width="310" height="160" rx="24" fill="#FFFFFF" stroke="#D7D3CA" stroke-width="3"/>
    <circle cx="78" cy="56" r="25" fill="#F7C59F" stroke="#0B2D5C" stroke-width="3"/>
    <path d="M50 124c4-33 18-48 28-48s24 15 28 48" fill="#3F7F2A" stroke="#0B2D5C" stroke-width="3"/>
    <path d="M127 82h52" stroke="#F58220" stroke-width="6" stroke-linecap="round"/>
    <path d="M166 70l14 12-14 12" fill="none" stroke="#F58220" stroke-width="6" stroke-linecap="round" stroke-linejoin="round"/>
    <text x="238" y="72" text-anchor="middle" direction="rtl" unicode-bidi="plaintext" font-family="Arial, Tahoma, sans-serif" font-size="34" font-weight="700" fill="#3B1D5A">هذا</text>
    <text x="238" y="112" text-anchor="middle" direction="rtl" unicode-bidi="plaintext" font-family="Arial, Tahoma, sans-serif" font-size="20" fill="#5F625E">معلّم</text>
  </g>

  <g transform="translate(418 165)">
    <rect width="310" height="160" rx="24" fill="#FFFFFF" stroke="#D7D3CA" stroke-width="3"/>
    <circle cx="78" cy="78" r="18" fill="#F58220"/>
    <circle cx="78" cy="48" r="17" fill="#8E5BB7"/>
    <circle cx="106" cy="68" r="17" fill="#F4C95D"/>
    <circle cx="50" cy="68" r="17" fill="#3F7F2A"/>
    <circle cx="95" cy="103" r="17" fill="#E85D75"/>
    <circle cx="61" cy="103" r="17" fill="#2F80ED"/>
    <path d="M78 96v36" stroke="#3F7F2A" stroke-width="6" stroke-linecap="round"/>
    <text x="238" y="72" text-anchor="middle" direction="rtl" unicode-bidi="plaintext" font-family="Arial, Tahoma, sans-serif" font-size="34" font-weight="700" fill="#3B1D5A">هذه</text>
    <text x="238" y="112" text-anchor="middle" direction="rtl" unicode-bidi="plaintext" font-family="Arial, Tahoma, sans-serif" font-size="20" fill="#5F625E">زهرة</text>
  </g>

  <g transform="translate(72 365)">
    <rect width="310" height="150" rx="24" fill="#FFFFFF" stroke="#D7D3CA" stroke-width="3"/>
    <circle cx="54" cy="54" r="18" fill="#F7C59F" stroke="#0B2D5C" stroke-width="3"/>
    <circle cx="94" cy="47" r="18" fill="#F7C59F" stroke="#0B2D5C" stroke-width="3"/>
    <circle cx="134" cy="54" r="18" fill="#F7C59F" stroke="#0B2D5C" stroke-width="3"/>
    <path d="M35 115c3-25 10-39 19-39s16 14 19 39M75 115c3-30 10-46 19-46s16 16 19 46M115 115c3-25 10-39 19-39s16 14 19 39" fill="#3F7F2A" stroke="#0B2D5C" stroke-width="3"/>
    <text x="238" y="66" text-anchor="middle" direction="rtl" unicode-bidi="plaintext" font-family="Arial, Tahoma, sans-serif" font-size="34" font-weight="700" fill="#3B1D5A">هؤلاء</text>
    <text x="238" y="106" text-anchor="middle" direction="rtl" unicode-bidi="plaintext" font-family="Arial, Tahoma, sans-serif" font-size="20" fill="#5F625E">معلّمون</text>
  </g>

  <g transform="translate(418 365)">
    <rect width="310" height="150" rx="24" fill="#FFFFFF" stroke="#D7D3CA" stroke-width="3"/>
    <circle cx="64" cy="70" r="16" fill="#F58220"/>
    <circle cx="64" cy="44" r="15" fill="#8E5BB7"/>
    <circle cx="42" cy="63" r="15" fill="#3F7F2A"/>
    <circle cx="86" cy="63" r="15" fill="#F4C95D"/>
    <path d="M64 86v38" stroke="#3F7F2A" stroke-width="5" stroke-linecap="round"/>
    <circle cx="128" cy="70" r="16" fill="#F58220"/>
    <circle cx="128" cy="44" r="15" fill="#E85D75"/>
    <circle cx="106" cy="63" r="15" fill="#2F80ED"/>
    <circle cx="150" cy="63" r="15" fill="#F4C95D"/>
    <path d="M128 86v38" stroke="#3F7F2A" stroke-width="5" stroke-linecap="round"/>
    <text x="238" y="66" text-anchor="middle" direction="rtl" unicode-bidi="plaintext" font-family="Arial, Tahoma, sans-serif" font-size="34" font-weight="700" fill="#3B1D5A">هاتان</text>
    <text x="238" y="106" text-anchor="middle" direction="rtl" unicode-bidi="plaintext" font-family="Arial, Tahoma, sans-serif" font-size="20" fill="#5F625E">زهرتان</text>
  </g>

  <path d="M54 546H746" stroke="#D7D3CA" stroke-width="2" stroke-dasharray="8 10"/>
  <text x="400" y="576" text-anchor="middle" direction="rtl" unicode-bidi="plaintext" font-family="Arial, Tahoma, sans-serif" font-size="18" fill="#5F625E">لاحظ الصورة ثم اختر اسم الإشارة المناسب</text>
</svg>
